<?xml version="1.0" standalone="no"?><!DOCTYPE svg PUBLIC "-//W3C//DTD SVG 1.1//EN" "http://www.w3.org/Graphics/SVG/1.1/DTD/svg11.dtd"><svg t="1644496909786" class="icon" viewBox="0 0 1194 1024" version="1.1" xmlns="http://www.w3.org/2000/svg" p-id="937" xmlns:xlink="http://www.w3.org/1999/xlink" width="192.392578125" height="165"><defs><style type="text/css"></style></defs><path d="M974.84265992 780.94536503H179.08127256A62.45724964 62.45724964 0 0 0 116.4921875 843.23782001v0.32958932c0 34.40916501 28.01512539 62.29245421 62.58908507 62.29245498h795.76138735a62.45724964 62.45724964 0 0 0 62.58908506-62.29245498v-0.32958932c0-34.40916501-28.04808385-62.29245421-62.6220443-62.29245498m-0.29663009-332.62193126H179.44382113A62.75387973 62.75387973 0 0 0 116.4921875 510.94547807v0.49438399c0 34.54100121 28.14696081 62.62204431 62.91867517 62.62204431h795.10220792c34.73875511 0 62.91867517-28.0810431 62.91867439-62.62204431v-0.49438399c0-34.60691891-28.17992005-62.62204431-62.91867439-62.6220443M974.84265992 116.49251734H179.08127256A62.45724964 62.45724964 0 0 0 116.4921875 178.78497155v0.3295901c0 34.40916501 28.01512539 62.29245421 62.58908507 62.29245421h795.76138735a62.45724964 62.45724964 0 0 0 62.58908506-62.29245421v-0.3295901c0-34.37620654-28.04808385-62.29245421-62.6220443-62.29245421" fill="#ffffff" p-id="938"></path></svg>