<?xml version="1.0" standalone="no"?><!DOCTYPE svg PUBLIC "-//W3C//DTD SVG 1.1//EN" "http://www.w3.org/Graphics/SVG/1.1/DTD/svg11.dtd"><svg t="1644806956124" class="icon" viewBox="0 0 1024 1024" version="1.1" xmlns="http://www.w3.org/2000/svg" p-id="997" xmlns:xlink="http://www.w3.org/1999/xlink" width="165" height="165"><defs><style type="text/css"></style></defs><path d="M922.28895047 819.60088159L758.00445697 655.31638726c-7.41504721-7.41504721-17.4665561-11.53451815-28.01240112-11.53451815H703.13310629c45.47895721-58.16692694 72.50268521-131.32872757 72.50268522-210.91690228C775.63579151 243.53409076 622.22670075 90.125 432.89582468 90.125S90.15585785 243.53409076 90.15585785 432.86496683s153.40909075 342.73996683 342.73996683 342.73996682c79.58817471 0 152.74997534-27.023728 210.91690229-72.50268521v26.85894957c0 10.54584503 4.11947094 20.59735391 11.53451814 28.01240112l164.28449432 164.28449349c15.48920983 15.48920983 40.53559239 15.48920983 55.86002299 0l46.63240879-46.63240879c15.48920983-15.48920983 15.48920983-40.53559239 0.16477926-56.02480224zM432.89582468 643.78186911c-116.49863315 0-210.91690228-94.25349069-210.91690229-210.91690228 0-116.49863315 94.25349069-210.91690228 210.91690229-210.91690228 116.49863315 0 210.91690228 94.25349069 210.91690227 210.91690228 0 116.49863315-94.25349069 210.91690228-210.91690227 210.91690228z" fill="#000000" p-id="998"></path></svg>